<?xml version="1.0" encoding="UTF-8"?>
<svg id="Layer_1" data-name="Layer 1" xmlns="http://www.w3.org/2000/svg" viewBox="0 0 364.32 85.72">
  <defs>
    <style>
      .cls-1 {
        fill: #231f20;
      }
    </style>
  </defs>
  <path class="cls-1" d="M0,0v85.72h364.32V0H0ZM319.77,68.95h-30.95l-11.68-29.95-5.64,14.48-5.64-14.48-11.67,29.95h-30.96l-17.53-40.08h-1.18v23.11l-10.11-23.11h-1.18v40.08h-21.77V28.87h-1.56l-9.73,22.25v-22.25h-1.56l-17.53,40.08h-30.96l-11.67-29.95-5.64,14.48-5.64-14.48-11.67,29.95h-30.96L21.73,16.77h24.04l9.09,33.14,6.77-16.46,4.51,16.46,13.63-33.14h26.08l13.63,33.14,4.51-16.46,6.77,16.46,9.09-33.14h84.59l9.09,33.14,6.77-16.46,4.51,16.46,13.63-33.14h26.08l13.63,33.14,4.52-16.46,6.77,16.46,9.09-33.14h24.04l-22.82,52.18Z"/>
</svg>